<?xml version="1.0" encoding="utf-8"?>
<!-- Generator: Adobe Illustrator 22.1.0, SVG Export Plug-In . SVG Version: 6.00 Build 0)  -->
<svg version="1.1" id="Camada_1" xmlns="http://www.w3.org/2000/svg" xmlns:xlink="http://www.w3.org/1999/xlink" x="0px" y="0px"
	 viewBox="0 0 484 101" style="enable-background:new 0 0 484 101;" xml:space="preserve">
<style type="text/css">
	.st0{fill:#FFFFFF;}
</style>
<g>
	<path class="st0" d="M32.4,7.9c0.2,0,0.4,0,0.5,0.1c0,0,0.1,0,0.1,0.1v0.1c0.4,1.7,1.3,3.3,2.9,4.8c0,0,1.6,0.1,1.7,0.1
		c0.5,0,1.5,1.3,1.5,1.3c0,0.1,0.1,0.5,0.1,0.6l0.7,0.2c0.2-0.2,0.2-0.4,0.2-0.6c0-0.1,1.3-1.6,1.3-1.6s0.6-1.3,0.7-1.7
		c0.1-0.4,0.9-0.6,1.3-1l0.1-0.1H44c0.1-0.1,0.1-0.5,0.2-0.7h0.1c0-0.1,0.1-0.1,0.1-0.2h0.5h0.4h0.2h0.1h0.6L47,9.5
		c0.2,0,0.6,0,0.9,0.1L48,9.7h0.1c0.2,0.1,0.6,0.4,0.9,0.5h0.1c0.2,0.1,0.4,0.2,0.6,0.5c0.7,0.6,1.2,1.6,1.5,2.6
		c0,0.1,0.1,0.1,0.1,0.2v1v0.2c0,0.1-0.1,0.1-0.1,0.2c-0.1,0.9-0.6,1.7-1.2,2.5c-0.1,0.1-0.1,0-0.2,0.1l-0.1,0.1l-0.1,0.1h-0.1
		c0,0-0.1,0.1-0.1,0.2v0.1c0,0.2,0,0.4,0.1,0.5c0,0.1,0.1,0,0.1,0.1c0,0.1-0.1,0.2-0.1,0.4c-0.2,0.4-1,0.5-1.1,1.1h0.1
		c0.4-0.1,0.6-0.2,1-0.2l0.4-0.1v0.6c0.1,0,0.4,0.2,0.6,0.4c0.4,0.1,0.6,0.2,0.9,0.5l0.4,0.4l0.1,0.1c0.1,0.2,0.2,0.2,0.4,0.5
		c0.4,0.6,0.6,1.2,0.6,2v0.1c0,0.4-0.1,0.7-0.1,1.1l-0.4,1.8c0,0.1,0,0.4-0.1,0.6c-0.1,0.5-0.4,1-0.6,1.5c-0.4,0.7-0.7,1.5-1.2,2.2
		c-0.2,0.4-0.6,0.9-0.6,0.9l-0.2,0.4l0.2,0.2l0.6,0.5l1.3,1.2l1.1,1l0.7,0.6l0.2,0.1l-0.7,0.6l0.7,2.1l-2.9,1.1c-0.1,0,0,0,0,0.2
		v0.2c1.7,2.8,3.3,6.1,4.2,9.8V51v0.1l-11.2,4.5l-5.3-12.9l-1.2-3.1l-0.7,1.6l-4.3,10.6l-0.4,6.3l-0.6,8.5c0.9,1.2,4.3,1.6,4.5,1.6
		c0.2,0,0.4-0.2,0.6-0.5c0.2-1.8,0.7-7.4,1-11.3c0.1-1.2,0.1-2.3,0.1-2.9c1.2-0.7,3.4-2.5,3.4-2.5s2.2,5.4,2.3,5.6l12.6-5.2
		c0-0.1-0.1-0.4-0.1-0.5l-0.1-0.2c-0.9-3.6-2.2-6.6-3.8-9.3l-0.1-0.2c0.4-0.1,1-0.5,1.2-0.5c1,0,1.1,0.9,1.8,0.9
		c0.1,0,0.6-0.1,1.3-0.4c1.1-0.5,2.3-0.9,3.7-1.1c1.1-0.2,2.3-0.4,3.6-0.4c1,0,1.8,0.1,2.8,0.2c1.7,0.2,3.6,0.7,5,1.5
		c0.4,0.1,0.6,0.4,1,0.5c0.2,0.1,0.5,0.1,0.6,0.2c0.1,0,0.1,0.1,0.2,0.1c0.1,0,0.4,0.1,0.5,0.1c0.2,0,0.5,0.1,0.7,0.1
		c0.4,0,0.9-0.1,1.3-0.1c4.9,0,8.8,4,8.8,9.1c0,0.9-0.1,1.7-0.4,2.5V54l-1.7,6.1l-1.2,4.4c-0.1,0.6-0.4,1.2-0.5,2
		c0,0.1-0.1,0.1-0.1,0.2C80,69,81,71.3,82.6,72.7c-1.5,0-2.7-0.5-3.8-1.3c0,0-0.1,0.2-0.1,0.4c0,0.2,0.4,0.2,0.4,0.5
		c0.4,1.2,0.7,1.6,1.5,2.3c0.2,0.2,0.6,0.5,1,1c-0.9,1.2-1.8,4.2-2,4.3c0,0.2,0.5,6.1,0.5,6.4c0,0.2,0.2,0.6,0.4,1
		c0.2,0.9,0.7,2.1,0.7,2.9v0.1c0,0.2,0,0.4-0.1,0.5l-0.6,0.6c-0.7,1-1.5,2.2-2,3.6c-0.2,0.7-0.5,1.6-0.6,2.3H73
		c0.1-0.9,0.4-1.8,0.7-2.7c0.7-1.6,1.7-2.8,2.8-3.7v-0.1c0-0.2,0.9-3.2,0.9-3.4c0-0.2-0.1-1.6-0.1-1.8c0-0.2-0.6-3.3-1.1-4.9
		c-0.2-0.9-0.5-2-1.1-2.8c-0.2-0.4-0.9-0.7-1.1-1c-0.6-0.6-1.6-1.6-1.7-2.3c-0.2-0.1-0.5-0.1-0.7-0.2c-0.7-0.4-1.3-0.7-2.1-1.2
		c-1.2-0.9-2.5-1.8-3.4-3.1c-0.1-0.1-0.2-0.4-0.4-0.5c-0.5-0.6-0.9-1.3-1.2-2.1c-0.4-0.6-0.7-1.2-1-2c-0.1-0.4-0.2-0.9-0.4-1.3
		l-0.4-1.5c-0.1-0.4-0.2-0.7-0.2-1.1L61.8,61c-0.1,0-0.2-0.1-0.4-0.1l-0.1-0.1c-1.2-0.7-2.2-1.7-3.1-2.9c0-0.1-0.2-0.1-0.2-0.2
		c0,0.1,0.2,0.2,0.2,0.4c0.2,0.5,0.5,0.9,0.9,1.3c0.5,0.7,1,1.3,1.7,2c0.2,0.2,0.5,0.4,0.7,0.5v0.1c0,0.4,0.1,0.9,0.2,1.2
		c0.1,0.9,0.4,1.6,0.6,2.3l0.7,1.8c0.6,1.2,1.2,2.5,2.1,3.4l0.1,0.2c-0.2,0.2-1.5,1.8-2,2.6c-0.1,0.1-0.2,0.2-0.2,0.4
		c0,0.1-0.1,0.2-0.1,0.4c-0.1,0.2-0.2,0.5-0.2,0.9v1.5l0.4,1.2l-1.6,0.2c0,0-1,0.2-1.3,0.2c-0.2,0.1-1.5,0.5-1.8,0.7
		c-0.6,0.5-1.8,1.7-2.6,2.7c-0.4,0.5-1.7,2.3-2.2,3.3c0.4,0.5,0.7,1.3,0.7,2.2v0.4V88c0,0.9-0.5,1.5-0.9,2c0.2,0.4,0.6,1.1,0.9,1.6
		L55,93l-0.1,0.1l-2.8,2.3l-1.6,1.3c-0.1-0.2-0.1-0.4-0.2-0.6c-0.4-1-0.6-2.2-0.6-3.3c0-0.7,0-1.6,0.1-2.3c0-0.4,0.1-0.6,0.2-1
		c-0.2-0.2-0.4-0.6-0.5-1c-0.1-0.2-0.1-0.6-0.1-1c0-1.2,0.6-2.2,1.3-2.6c0.5-0.7,2.5-4.4,6.4-9.2c0-0.5,0.1-0.9,0.1-1.3
		c0-0.4,0-0.7,0.1-1.1c0.1-0.6,0.2-1.2,0.5-1.7v-0.1c-0.4-0.5-0.7-1-1-1.6c-0.6-1.2-1-2.7-1.1-4.3c0-0.4-0.1-0.7-0.1-1.1v-0.2v-0.1
		c-0.5,0.2-1.1,0.4-1.7,0.6c-2.9,1.1-6.3,2.1-9.9,2.8c-2.5,0.5-5,0.7-7.2,0.9c-0.5,0.4-1.7,2-1.7,2s-5.5-1.7-5.8-2h-0.1L29,68.6
		c0.2,0.5,1,1.1,0.9,1.3c-0.9,1.6-1.1,3.8-1.1,3.9c-0.2,1.3-0.7,3.9-0.7,4.2s0.4,7.4,0.4,7.4s1,1.6,1.3,2.7c0.4,1.1,0.4,2.1,0.5,2.6
		c-0.5,0.5-0.6,0.9-1,1.6c-0.6,1.2-0.9,2.7-0.9,3.9c0,0.4,0,0.6,0.1,1h-5.6c0.1-1.1,0.4-2.2,0.9-3.3c0-0.1,0-0.2,0.1-0.4l0.4-0.7
		l0.7-1.5c0.1-0.2,0.4-0.2,0.5-0.5c0.1-0.1,0.1-0.4,0.2-0.5c0.1-0.2,0.2-0.5,0.2-0.7v-0.5c-0.1-2.9-0.4-4.9-0.4-5.2v-1.1
		c-0.2-1.6-0.7-3.3-0.7-5.2c0,0-2.2-4.4-2.2-5.3c0-0.2-1.3-4.2-2-6.5c0.7-0.2,1.5-0.6,2-1.2c0.5-0.5,0.7-1.2,0.9-1.8
		c0.1-0.2,0.1-0.5,0.1-0.9v-0.5c1.7-1.1,2.8-2.9,3.3-4.9c-0.1,0.4-0.2,0.7-0.5,1c-0.5,0.9-1.2,1.6-2.1,2.2l-1.1,0.7
		c-0.4,0.2-0.9,0.4-1.2,0.5c0.1,0.2,0.2,0.4,0.2,0.6c0,0.1,0.1,0.1,0.1,0.2v0.2v0.1v0.1c0,0.1-0.1,0.2-0.1,0.4
		c-0.1,0.5-0.5,1-0.9,1.3c-0.4,0.2-0.9,0.5-1.3,0.5c-0.2,0-1-0.1-1.5-0.1c-0.5,0-1.1,0.2-1.3,0.2c-0.2,0-7.9-0.7-8.1-0.6
		c-0.7,0.6-2.3,1.1-2.8,1.1C6,67.9,6.4,75,6.4,75.3l0.2,0.2c0.6,0.6,1.1,1.3,1.1,2.3v0.2l0.7,0.7l0.2,0.2c0.9,0.9,1.5,1.8,2,2.7v0.1
		l-2.5,4.8c-1.1-1.1-2.1-2.7-2.7-4.5c-0.1-0.4-0.2-0.6-0.4-1V81c-0.6-0.4-1-1.2-1.1-2.1c0-0.2-0.1-0.2-0.1-0.5v-0.2
		c0-0.5,0.4-1.7,0.4-1.8c0,0,0-1.1-0.1-1.8c-0.1-1.2-1.2-8.2-1.5-9c-0.1-0.6-0.7-0.9-0.7-2s1.2-2.6,2.8-2.7c1.6-0.1,2.1,0.5,2.3,0.4
		c1.8-0.6,4.4-1,5.4-1.2c0.4-0.1,2-0.6,2-0.6c0.1,0,0.1-0.1,0.2-0.1c0.1-0.1,0.2-0.1,0.4-0.2c0.7-0.6,1.2-1.2,1.6-2.1
		c-0.2,0.2-0.4,0.5-0.6,0.6c-0.2,0.1-0.4,0.4-0.6,0.5c-0.4,0.2-0.7,0.4-1.1,0.5h-0.2v-0.1c0-0.1-0.1-0.1-0.1-0.2
		c-0.2-0.6-0.5-1.1-0.6-1.8c0-0.2-0.1-0.4-0.1-0.6c0-0.1-0.1-0.2-0.1-0.4C13,54.8,13,54.1,13,53.5v-0.4v-0.2v-0.2v-0.4
		c0-0.5,0-1,0.1-1.5c0-0.4,0.1-0.7,0.2-1.1c0-0.1,0.1-0.4,0.1-0.5c0.1-0.5,0.2-0.9,0.5-1.3c0.4-1.2,0.9-2.7,0.6-4.3
		c0.2-0.2,0.5-0.6,0.7-0.7c0.6-0.4,1.1-0.5,1.1-0.6c0-0.2-0.2-0.9-0.4-1.2c0,0,2.1-0.1,3.4-0.6c1.6-0.5,7.7-4,10.3-4.7
		c0.7,1.5,2.5,3.6,3.2,4.5c0.1-0.4,0.4-0.7,0.7-1c-0.2-0.7-0.9-0.7-1.2-1.2c-0.2-0.4-0.9-1.1-1-1.5v-0.4c-0.1-1,1.8-1.1,2.2-1.3
		c0.2-0.1,0.7-0.9,0.7-0.9c-0.5-0.5-2-1.8-2-1.8l5-5.6h-3.1H34c-0.9-0.1-1.5-0.7-2-1.3l-0.1-0.1l-0.4-0.7v-0.2v-0.2
		c0-0.1-0.1-0.1-0.1-0.2v-0.1v-6.4h2.2c0.1-0.5,0.4-1,0.9-1.5l-0.1-0.1c-2.3-0.9-4.2-2.5-5-4c-0.1-0.2,0-0.9,0.2-1.3
		c0.1-0.2,0.2-0.5,0.5-0.7L30.5,9c0.4-0.4,0.7-0.6,1.1-0.9c0.2-0.1,0.5-0.2,0.7-0.2H32.4z M12.4,21.1c2.6,0,5.6,0.7,7.5,1.8
		c2.1,1.2,3.8,2.9,5.2,4.5c1.3,1.6,3.9,5.6,4.3,7c-1.8,0.7-3.6,1.7-5.6,2.9s-4.5,2.3-7.9,2.7c-0.4-0.2-0.5-1.6-0.4-2.6
		c0.1-1,1.5-3.3,1.7-4.9c0.2-1.3-0.4-2.1-0.4-2.1c-0.1,0.5,0.4,0.9-0.2,2.2c-0.6,1.3-1.5,3.3-1.7,5c-0.2,1.5,0.4,1.7,0.4,4.5
		c-1,0.2-3.3,2.6-4.3,2.6c-1,0-2.8-1.5-3.7-1.8c-0.1-2,0.1-2.1-0.1-3.2c-0.2-1.1-2.9-7.9-3.2-9.1s-0.5-3.4-0.5-3.7
		c0-0.2-1.3-2.8-1.3-2.8l1.7-1c0,0-0.5-1.1-0.9-2.1c1.3-0.5,3.1,1,3.1,1s2.6-0.7,5.3-1L12.4,21.1z M32.3,8.5c-0.1,0-0.4,0.1-0.6,0.2
		c-0.2,0.1-0.6,0.4-0.9,0.6C30.2,10,30,10.6,30,10.8V11v0.1c0.2,0.1,1-0.4,1.6-1c0.5-0.5,0.7-0.9,0.9-1.2V8.6V8.5H32.3z M32.7,9.6
		c-0.2,0.4-0.5,0.6-0.7,1c-0.4,0.4-0.6,0.5-1,0.7c-0.2,0.1-0.5,0.2-0.6,0.2c0.6,1,1.6,1.8,2.7,2.6c0.7,0.5,1.5,0.9,2.3,1.1
		c0-0.4,0-0.7,0.1-1.1V14c0-0.1,0.1-0.2,0.1-0.4C34.3,12.4,33.2,11,32.7,9.6z M35.1,34.5c-0.5,0.2-0.6,0.7-1,1
		c-0.4,0.2-1.8,0.1-1.8,0.9l0.6,1.2c0.1,0.2,0.2,0.4,0.4,0.4c0.5,0.2,0.7,0.6,1.1,1c0.1-0.1,0.9-0.4,0.9-0.4c-0.1-0.2-0.2-1.3-0.2-2
		c0-0.5,0.1-1,0.2-1.5C35.3,34.9,35.1,34.6,35.1,34.5z M39.5,25.2l-6,7l2.6,2.3c0.6,0,1.3-0.2,2.1-0.5c1-0.4,2.1-1,2.9-1.8l0.1-0.1
		c0.4-0.4,0.6-0.6,0.9-1c0.2-0.4,0.4-0.7,0.6-1.1c0.2-0.4,0.4-0.6,0.5-1l0.1-0.5L39.5,25.2z M35,15.7c-0.1,0.1-0.5,0.4-0.6,0.6
		c-0.5,1-0.5,1.7-0.2,2c0.2,0.2,1.3,0,1.6-0.1c0.2-0.1,1-0.6,1.1-0.9c-0.1-0.1-0.5-0.2-0.6-0.7c-0.1-0.1-0.2,0-0.4-0.1
		c-0.1-0.1-0.1-0.2-0.2-0.5C35.5,16,35.4,15.9,35,15.7z M36.2,13.7c-0.2,0.4-0.5,1.2,0,2.2l2.5-0.1v-0.9c-0.1-0.5-0.9-1-0.9-1
		s-1.2-0.2-1.5-0.2C36.4,13.7,36.2,13.7,36.2,13.7z M40.2,16.4h-0.6c0,0.2,0,0.5-0.2,0.7c-0.1,0.1-0.4,0.2-0.6,0.4
		c-0.4,0.1-0.9,0.2-1.2,0.1c0,0.1-0.1,0.2-0.2,0.2c-0.2,0.2-0.4,0.2-0.6,0.4c-0.1,0.1-0.2,0.2-0.2,0.6v1.8H38c0.2,0,1.1-0.2,1.6-0.4
		c0.5,0.9,1.2,1.5,2.3,1.7l-0.4,1.5c-0.2,0.7-0.4,1.5-0.6,2.2l1,0.9c0-0.9,0.1-1.8,0.4-2.7c0.1-0.5,0.5-1.2,0.5-1.6
		c0-0.4,0.1-0.7,0.1-1c-1,0-1.8-0.5-2.3-1.2c-0.4-0.5-0.5-1.1-0.5-1.7c0-0.2,0.1-0.4,0.1-0.6v-0.1v-0.1V16.4z M38.9,16.4l-2.1,0.1
		c0,0-0.1,0.7,1.1,0.6C39.2,17,38.9,16.4,38.9,16.4z M45.6,9.9L45.2,10h-0.2c-0.1,0.6-0.1,1.5-0.1,2.2c0,0.2-0.1,0.2-0.1,0.5v0.6
		v0.2h-0.5v-1v-0.5v-0.1v-1c-0.1,0.1-0.4,0.4-0.7,0.5c-0.2,0.2-0.6,0.4-0.6,0.4s-0.2,0.4-0.4,0.7c0.1,0.1,0.2,0.4,0.2,0.5l0.7,0.4
		c0.2,0.1,0.2,0.2,0.2,0.6v0.2c-0.1,0.2-0.2,0.6-0.5,0.9c-0.1-0.1-0.4-0.1-0.5-0.2c-0.4-0.2-0.7-0.7-1-1c-0.2,0.1-0.5,0.4-0.6,0.6
		c-0.1,0.1-0.2,0.2-0.2,0.4c0.1,0,0.1,0,0.2,0.1c0.1,0.1,0.2,0.2,0.2,0.4s0.1,0.2,0.1,0.4v0.1c0,0.1,0.1,0.1,0.1,0.2
		c0,0.1,0.1,0.2,0.1,0.4c0,0.1,0.1,0,0.1,0.1l0.4,0.4c0.1,0.1,0.2,0.2,0.5,0.4c0.1-0.2,0.2-0.4,0.4-0.5l0.1-0.1
		c0-0.1,0.2-0.1,0.2-0.2c0.2-0.2,0.2-0.4,0.5-0.6l0.1-0.2v-0.2v-0.2h0.6v0.2v0.1v0.1v0.6v0.4v0.5v0.1v0.2v0.1v0.5l0.4-0.1h0.1v-0.5
		v-0.4h0.1c0.1,0,0.2-0.1,0.4-0.1c0.5-0.2,1-0.5,1.3-1c0.5-0.6,1-1.2,1.1-1.8V14l0.6,0.1l0.1-0.1c0.5,0,1,0,1.3-0.1
		c0.1,0,0.4-0.1,0.5-0.1h0.1v-0.4c0-0.1-0.1-0.2-0.1-0.4c-0.1-0.2-0.1-0.4-0.2-0.5c-0.1-0.2-0.4-0.5-0.6-0.9
		c-0.1-0.2-0.2-0.5-0.5-0.7h-0.1c-0.2-0.2-0.5-0.5-0.9-0.6h-0.1c-0.4-0.2-1-0.2-1.5-0.4c-0.1,0.5-0.4,1-0.5,1.6
		c-0.1,0.6-0.2,1.3-0.4,2h-0.5v-0.1c0-0.1,0.2-1.6,0.2-1.7c0-0.2,0.2-1.7,0.2-1.8C45.9,9.9,45.6,9.9,45.6,9.9z M49.1,33.4H49
		c-0.1,0.1,0,0.1-0.1,0.2L48.5,34c0,0.1-0.1,0.1-0.1,0.2l-0.2,0.2H48c-1.1,1.1-2.3,2.1-3.6,2.8c-1.1,0.6-2.2,1.1-3.3,1.5l3.6,3.1
		l0.2,0.2l3.9-4.5l2.2-2.5L49.1,33.4z M51.4,35.4L51,36l-0.1,0.1l-4.5,5.3l0.4,0.4l4.4-3.7l1.8-1.5h-0.1L51.4,35.4z M52.4,37.7
		l-0.1,0.1l-3.1,2.5l-0.6,0.5l0.4-0.1l3.9-1.6H53L52.4,37.7z M76.8,46.2c0.5,1.1,1.7,4.4,1.7,5.8v2.9c0,0.2-0.6,2.7-1.1,4.2h0.1
		c1.3-1.6,2.1-3.7,2.1-5.9V53v-0.7c-0.1-1.2-0.4-2.5-0.9-3.4c0-0.1-0.1,0-0.1-0.1c-0.5-1-1.1-1.7-1.8-2.5V46.2z M98.7,21.3h46.6V34
		h-31v18h23.9v12.8h-23.9v20.7h31v12.6H98.7V21.3z M175.5,19.9c19,0,24.9,17.4,24.9,17.4L186.9,43c0,0-2.8-9.3-11.5-9.7
		c-10.8-0.5-12,11.4-1.1,15.5c7.9,2.8,12.5,4.5,16.3,6.7c0.9,0.5,4.3,3.1,4.8,3.6c8,7.1,6.9,17.1,6.9,17.1
		c-0.5,6.1-5.2,23.4-26.7,23.4c-15,0-25.3-9.1-27.4-21.5l14.5-3.6c0,0,3.1,11.3,12.9,11.3c2.3,0,7.2-1,9-6c1.3-3.8-0.9-8.5-6.6-10.9
		c-6-2.5-9.8-3.4-13.1-4.9c0,0-3.7-2-5.4-3.4c-5.8-4.4-11.2-11.5-9.3-23.1C151.7,27,161.5,19.9,175.5,19.9z M205.3,22.2h47.4v14.4
		h-15.8v61.6h-16.1V36.6h-15.5V22.2z M266.2,21.3h20.5l21.7,76.9h-17.3l-3.9-14.8h-21.8l-3.6,14.8h-17.3L266.2,21.3z M276.2,35.6
		l-8.5,34.7h17.2l-8.5-34.7H276.2z M337.1,21.5c3.4,0,30.6,0.9,30.6,37.5c0,39.1-30.9,39.1-30.9,39.1h-22.2V21.5h22.2
		C336.7,21.5,337.1,21.5,337.1,21.5z M334.8,34.5h-0.1h-3.6v50.8h3.6c0,0,16.8,0,16.8-25.9C351.4,35.1,336.6,34.5,334.8,34.5z
		 M385.7,21.3h20.5l21.7,76.9h-17.3l-3.9-14.8h-21.8l-3.6,14.8H364L385.7,21.3z M387.9,2h0.6c2.3,0.1,4.2,0.4,5.4,0.9l6,2.3
		c1.2,0.5,2.5,0.7,3.7,0.7c1.2,0,5.6-0.4,6.7-3.1l5.2,3.3c-0.7,2.1-1.7,3.8-3.2,5.3c-2.2,2.2-4.9,3.3-8.1,3.2c-1.3,0-2.7-0.2-4-0.6
		c-1.4-0.4-2.6-0.9-3.9-1.3c-1.4-0.5-2.6-0.9-3.7-1.2c-1.1-0.4-2.3-0.7-3.3-0.7c-2-0.1-5.6-0.1-6.4,2.2l-5.6-2.5
		c0.9-2.3,2-4,3.4-5.5C382.6,3,384.9,2,387.9,2z M395.7,35.6l-8.5,34.7h17.2L396,35.6H395.7z M454.4,18.6c6.1,0,10.9,1,14.6,2.9
		c3.7,2,6.4,4.7,8.3,8.2c2,3.6,3.2,7.9,3.8,12.8c0.6,4.9,0.9,10.3,0.9,16.1c0,5.9-0.2,11.3-0.9,16.2c-0.6,4.9-1.8,9.1-3.8,12.6
		c-2,3.6-4.7,6.3-8.3,8.1c-3.7,1.8-8.5,2.7-14.6,2.7c-6.1,0-10.9-0.9-14.6-2.7c-3.7-1.8-6.4-4.5-8.3-8.1c-2-3.6-3.2-7.7-3.8-12.6
		c-0.6-4.9-0.9-10.3-0.9-16.2c0-5.8,0.2-11.2,0.9-16.1c0.6-4.9,1.8-9.2,3.8-12.8c2-3.6,4.7-6.3,8.3-8.2S448.3,18.6,454.4,18.6z
		 M454.4,32.4c-2.3,0-4.2,0.4-5.6,1.3c-1.5,1-2.5,2.5-3.2,4.5c-0.7,2.1-1.3,4.8-1.6,8.1c-0.2,3.3-0.4,7.4-0.4,12s0.1,8.7,0.4,12
		c0.2,3.3,0.9,5.9,1.6,8c0.7,2.1,1.7,3.6,3.2,4.5c1.5,1,3.3,1.5,5.6,1.5c2.3,0,4.2-0.5,5.6-1.5c1.5-1,2.6-2.5,3.3-4.5
		c0.7-2.1,1.2-4.7,1.5-8c0.2-3.3,0.4-7.4,0.4-12s-0.1-8.7-0.4-12c-0.2-3.3-0.7-6-1.5-8.1c-0.7-2.1-1.8-3.6-3.3-4.5
		C458.6,32.8,456.7,32.4,454.4,32.4z"/>
</g>
</svg>
